# xmcd
#
# Track frame offsets: 
#        182
#        13207
#        27230
#        41635
#        55815
#        70802
#        84932
#        100022
#        112310
#        126245
#        140415
#        155145
#        169735
#        182952
#        196445
#        210130
#        223975
#        237320
#
# Disc length: 3358 seconds
#
# Revision: 3
# Processed by: cddbd v1.5.2PL0 Copyright (c) Steve Scherf et al.
# Submitted via: ExactAudioCopyFreeDBPlugin 1.0
#
DISCID=090d1c12
DTITLE=Lonnie Johnson - Guitar Blues
DYEAR=1996
DGENRE=Blues
TTITLE0=Sweet Woman You Can't Go Wrong
TTITLE1=Life Saver Blues
TTITLE2=Blue Ghost Blues
TTITLE3=Saint Louis Cyclone Blues
TTITLE4=Low Land Moan
TTITLE5=I'm So Tired Of Living All Alone
TTITLE6=When You Fall For Someone That's Not Your Own
TTITLE7=Way Down That Lonesome Road
TTITLE8=Sundown Blues
TTITLE9=Baby Please Don't Leave Home No More
TTITLE10=Racketeer's Blues
TTITLE11=I'm Nuts About That Gal
TTITLE12=Why Women Go Wrong
TTITLE13=Trust Your Husband
TTITLE14=Four-O-Three Blues
TTITLE15=She's Only A Woman
TTITLE16=Don't Be No Fool
TTITLE17=Get Yourself Together
EXTD=
EXTT0=
EXTT1=
EXTT2=
EXTT3=
EXTT4=
EXTT5=
EXTT6=
EXTT7=
EXTT8=
EXTT9=
EXTT10=
EXTT11=
EXTT12=
EXTT13=
EXTT14=
EXTT15=
EXTT16=
EXTT17=
PLAYORDER=
